<?xml version="1.0" standalone="no"?>
<!DOCTYPE svg PUBLIC "-//W3C//DTD SVG 20010904//EN"
 "http://www.w3.org/TR/2001/REC-SVG-20010904/DTD/svg10.dtd">
<svg version="1.0" xmlns="http://www.w3.org/2000/svg"
 width="401.000000pt" height="401.000000pt" viewBox="0 0 401.000000 401.000000"
 preserveAspectRatio="xMidYMid meet">
<metadata>
Created by potrace 1.14, written by Peter Selinger 2001-2017
</metadata>
<g transform="translate(0.000000,401.000000) scale(0.100000,-0.100000)"
fill="#000000" stroke="none">
<path d="M0 2005 l0 -2005 2005 0 2005 0 0 2005 0 2005 -2005 0 -2005 0 0
-2005z m2910 1323 c0 -211 4 -389 8 -396 6 -9 71 52 215 198 l207 210 185 0
c101 0 186 -4 189 -9 3 -5 -11 -24 -32 -42 -20 -17 -108 -101 -196 -186 -143
-138 -157 -155 -145 -170 19 -24 113 -137 119 -143 5 -4 126 -149 172 -205 9
-11 42 -50 72 -87 31 -36 56 -69 56 -72 0 -3 -87 -6 -194 -6 -149 0 -198 3
-208 13 -7 8 -38 44 -68 82 -30 37 -78 95 -105 129 -28 33 -72 89 -98 124 -27
34 -54 62 -60 62 -7 0 -36 -24 -64 -54 l-53 -54 0 -151 0 -151 -175 0 -175 0
0 638 c0 351 3 642 7 645 3 4 82 7 175 7 l168 0 0 -382z m-1725 15 c11 -6 37
-19 58 -29 39 -20 107 -80 107 -95 0 -17 43 -9 74 14 43 31 170 92 235 111 35
10 91 16 162 16 107 0 114 -1 209 -44 38 -17 100 -85 124 -136 20 -43 21 -60
21 -400 l0 -355 -172 -3 -173 -2 0 274 c0 152 -5 297 -10 323 -6 28 -24 64
-43 87 -29 34 -41 40 -93 47 -85 13 -201 -9 -261 -49 l-23 -14 0 -334 0 -334
-175 0 -175 0 -1 238 c-1 354 -6 390 -52 445 -27 31 -41 39 -88 46 -73 12
-172 -1 -234 -30 l-50 -24 -3 -337 -2 -338 -174 0 c-158 0 -175 2 -180 18 -3
9 -5 215 -3 457 l2 440 178 3 177 2 0 -49 c0 -48 12 -72 25 -51 3 5 25 19 48
30 23 11 49 24 57 29 16 10 27 15 105 42 40 14 77 17 180 16 73 -1 139 -7 150
-14z m-803 -1587 c2 -211 6 -387 9 -391 4 -3 35 -7 70 -8 l64 -2 3 -85 c4
-137 -1 -131 90 -128 l77 3 5 105 5 105 55 5 55 5 3 388 2 388 63 -3 62 -3 5
-385 5 -385 68 -3 67 -3 0 -90 c0 -123 4 -129 90 -129 81 0 79 -5 82 130 l3
85 44 2 c24 1 50 4 57 7 11 4 14 77 16 388 l3 383 135 0 135 0 5 -495 5 -495
75 0 75 0 5 495 5 495 120 0 120 0 5 -385 5 -385 70 -5 70 -5 3 -108 3 -108
77 3 77 3 5 105 5 105 57 3 58 3 2 387 3 387 60 0 60 0 5 -385 5 -385 70 -5
70 -5 5 -105 5 -105 75 0 75 0 3 102 c3 114 -1 109 82 115 l35 3 5 385 5 385
62 3 63 3 2 -388 3 -388 50 -3 c99 -5 94 1 97 -115 l3 -102 69 -3 c38 -2 73 1
79 7 5 5 11 51 12 101 3 103 7 110 67 110 27 0 40 6 48 19 6 13 10 154 10 390
l0 371 125 0 125 0 0 -990 0 -990 -147 0 c-1443 -2 -3576 1 -3584 5 -10 7 -13
1958 -2 1968 3 4 57 7 119 7 l113 0 3 -384z"/>
<path d="M3655 1182 l-60 -17 -3 -133 c-2 -122 -4 -133 -20 -126 -9 4 -52 9
-94 12 -105 6 -166 -16 -233 -83 -90 -89 -122 -201 -104 -360 9 -85 32 -136
86 -191 66 -68 95 -79 203 -79 76 0 102 4 124 18 25 17 29 17 40 2 9 -13 26
-15 86 -13 l75 3 0 490 c0 561 11 508 -100 477z m-84 -435 c18 -11 19 -25 19
-188 l0 -175 -35 -17 c-47 -22 -93 -21 -149 2 -53 23 -74 52 -91 124 -19 80
-2 165 42 217 19 22 49 44 66 49 38 12 121 5 148 -12z"/>
<path d="M458 901 c-101 -47 -143 -148 -102 -246 21 -51 64 -88 164 -142 47
-25 93 -53 103 -61 20 -17 23 -72 5 -90 -21 -21 -131 -15 -177 10 -33 17 -43
19 -56 8 -8 -7 -15 -18 -15 -25 0 -7 -7 -26 -15 -41 -24 -47 -19 -62 30 -84
90 -41 241 -40 320 2 118 63 142 230 47 325 -16 16 -69 48 -118 72 -104 51
-124 66 -124 96 0 54 84 73 162 35 49 -24 57 -19 82 50 22 60 18 67 -52 94
-58 22 -203 21 -254 -3z"/>
<path d="M1090 902 c-60 -22 -130 -93 -165 -167 -26 -55 -29 -69 -29 -175 0
-103 3 -121 26 -171 33 -72 84 -128 145 -159 42 -22 61 -25 148 -25 120 1 169
19 233 89 76 83 106 200 87 339 -18 131 -73 215 -170 261 -47 22 -69 26 -143
25 -55 0 -103 -7 -132 -17z m172 -134 c67 -20 108 -97 108 -201 0 -81 -19
-135 -62 -179 -35 -35 -42 -38 -97 -38 -53 0 -63 3 -90 31 -17 17 -34 43 -37
57 -3 15 -10 40 -15 56 -30 96 19 237 94 270 41 18 51 19 99 4z"/>
<path d="M2135 912 c-22 -2 -43 -9 -47 -15 -4 -7 -8 -116 -8 -243 l0 -230 -27
-25 c-63 -57 -149 -67 -195 -22 l-28 27 0 237 c0 131 -3 244 -6 253 -5 13 -22
16 -85 16 l-79 0 -1 -117 c-5 -340 -1 -416 20 -463 43 -97 91 -125 211 -125
71 0 94 4 136 25 51 25 51 25 60 5 8 -17 20 -20 77 -23 42 -2 74 2 83 9 12 9
14 69 14 338 0 179 -4 331 -8 337 -9 13 -63 21 -117 16z"/>
<path d="M2460 911 l-45 -6 0 -345 0 -345 74 -3 c53 -2 77 1 82 10 5 7 9 120
9 250 l0 237 27 25 c31 29 84 40 139 30 82 -15 88 -36 94 -314 l5 -235 74 -3
c53 -2 77 1 82 10 5 7 9 114 9 238 0 243 -7 290 -55 362 -14 21 -49 51 -78 68
-46 26 -62 30 -130 30 -78 0 -133 -16 -166 -48 -12 -11 -18 -9 -42 17 -15 17
-29 30 -31 29 -2 0 -23 -4 -48 -7z"/>
</g>
</svg>
